# xmcd
#
# Track frame offsets:
#	150
#	20785
#	41516
#	55982
#	81601
#	93725
#	115368
#	135633
#	148845
#	167405
#	177135
#	211639
#	230064
#
# Disc length: 3253 seconds
#
# Revision: 0
# Processed by: cddbd v1.5.2PL0 Copyright (c) Steve Scherf et al.
# Submitted via: dBpowerAMP V4.0
#
DISCID=bb0cb30d
DTITLE=Jimmy Carl Black - How Blue Can Vou Get?
DYEAR=1900
DGENRE=Blues
TTITLE0=i´m A Space Cowboy
TTITLE1=You Don´t Love Me No More
TTITLE2=Crazy Not Jealous
TTITLE3=Baby Blue
TTITLE4=Born Under A Bad Sign
TTITLE5=The Weight
TTITLE6=Same Old Blues
TTITLE7=Subterranean Homesick Blues
TTITLE8=Waitin´ For My Man
TTITLE9=Sidewinder
TTITLE10=Like A Rolling´ Stone
TTITLE11=Sick ´n` Tired
TTITLE12=Sad Nite Owl
EXTD=
EXTT0=
EXTT1=
EXTT2=
EXTT3=
EXTT4=
EXTT5=
EXTT6=
EXTT7=
EXTT8=
EXTT9=
EXTT10=
EXTT11=
EXTT12=
PLAYORDER=
